<?xml version="1.0" encoding="UTF-8" standalone="no"?>
<!DOCTYPE svg PUBLIC "-//W3C//DTD SVG 1.1//EN" "http://www.w3.org/Graphics/SVG/1.1/DTD/svg11.dtd">
<svg width="100%" height="100%" viewBox="0 0 1182 1182" version="1.1" xmlns="http://www.w3.org/2000/svg" xmlns:xlink="http://www.w3.org/1999/xlink" xml:space="preserve" xmlns:serif="http://www.serif.com/" style="fill-rule:evenodd;clip-rule:evenodd;stroke-miterlimit:8;">
    <g transform="matrix(1,0,0,1.00094,0,-0.0184774)">
        <rect x="20.664" y="1051.8" width="1142.94" height="107.199" style="fill:rgb(195,205,255);"/>
    </g>
    <g transform="matrix(0.000185375,-7.7515e-20,7.74419e-20,-0.000818508,19.0098,1161.98)">
        <rect x="0" y="0" width="6.18111e+06" height="1.39571e+06" style="fill:none;stroke:rgb(114,114,114);stroke-width:65824.9px;"/>
    </g>
    <g transform="matrix(4.10685,0,0,4.62742,-158.261,87.073)">
        <path d="M48.13,210.128L86.497,189.255L124.864,110.009L163.221,11.286L201.597,36.738L239.954,144.157L278.311,200.654L316.668,211.557" style="fill:rgb(195,205,255);fill-rule:nonzero;"/>
    </g>
    <g transform="matrix(8.24597,0,0,9.29121,-926.906,-3353.43)">
        <path d="M117.185,474.949L136.294,464.553L155.402,425.085L174.506,375.917L193.618,388.593L212.722,442.093L231.825,470.23L250.929,475.661L243.475,474.423L235.291,471.216L227.606,467.336C224.718,464.918 222.202,461.787 219.808,457.676C218.284,455.06 216.809,452.047 215.318,448.568C214.46,446.566 213.597,444.41 212.716,442.087C211.436,438.71 210.118,434.977 208.771,431.051L201.47,410.582L194.762,391.795L189.995,381.216C188.483,378.535 186.98,376.394 185.478,374.875C184.392,373.776 183.307,373.002 182.22,372.583C180.982,372.105 179.741,372.09 178.495,372.581L174.506,375.917L171.521,380.677C169.142,385.163 166.747,391.194 164.39,397.833C163.62,400.003 162.854,402.237 162.094,404.504C161,407.767 159.918,411.096 158.854,414.395C157.788,417.7 156.741,420.973 155.717,424.117C155.611,424.445 155.504,424.772 155.398,425.097C154.055,429.205 152.753,433.073 151.448,436.691C150.697,438.773 149.946,440.772 149.185,442.686C148.109,445.392 147.014,447.929 145.878,450.291C144.847,452.434 143.781,454.433 142.663,456.284C141.618,458.015 140.528,459.617 139.377,461.086C138.395,462.34 137.37,463.498 136.292,464.558C135.317,465.516 134.299,466.394 133.262,467.198C131.007,468.946 128.663,470.342 126.486,471.44L117.185,474.949Z" style="fill:rgb(195,205,255);fill-rule:nonzero;stroke:rgb(194,205,255);stroke-width:2.96px;stroke-linejoin:round;stroke-miterlimit:2;"/>
    </g>
    <g transform="matrix(4.10685,0,0,4.62742,-158.261,10.156)">
        <path d="M48.13,226.75C48.13,226.75 70.288,221.813 86.493,205.886C102.697,189.96 112.978,162.989 124.855,126.655C136.732,90.32 150.266,44.526 163.218,27.906C176.169,11.286 188.629,23.789 201.58,53.312C214.531,82.835 228.066,129.436 239.943,160.767C251.82,192.098 262.101,208.274 278.305,217.275C294.509,226.275 316.668,228.179 316.668,228.179" style="fill:none;fill-rule:nonzero;stroke:rgb(114,114,114);stroke-width:5.95px;stroke-linecap:round;stroke-miterlimit:10;"/>
    </g>
    <g transform="matrix(5.83078,-6.56988,-5.83078,-6.56988,1636.61,4375.83)">
        <path d="M136.294,382.45C136.706,382.45 137.041,382.785 137.041,383.197C137.041,383.61 136.706,383.945 136.294,383.944C135.881,383.945 135.547,383.61 135.547,383.197C135.547,382.785 135.881,382.45 136.294,382.45" style="fill:rgb(0,57,212);fill-rule:nonzero;stroke:rgb(0,57,212);stroke-width:2.8px;stroke-linejoin:round;stroke-miterlimit:2;"/>
    </g>
    <g transform="matrix(5.83051,-6.57019,-5.83106,-6.56957,1913.05,4393.88)">
        <path d="M155.402,421.918C155.815,421.918 156.15,422.253 156.149,422.665C156.149,423.078 155.815,423.412 155.402,423.412C154.99,423.412 154.655,423.078 154.655,422.665C154.655,422.253 154.99,421.918 155.402,421.918" style="fill:rgb(0,57,212);fill-rule:nonzero;stroke:rgb(0,57,212);stroke-width:2.8px;stroke-linejoin:round;stroke-miterlimit:2;"/>
    </g>
    <g transform="matrix(5.83106,-6.56957,-5.83051,-6.57019,2245.54,4385.76)">
        <path d="M174.505,471.087C174.918,471.087 175.252,471.421 175.252,471.834C175.252,472.247 174.918,472.581 174.505,472.581C174.093,472.581 173.758,472.246 173.758,471.834C173.758,471.421 174.093,471.087 174.505,471.087" style="fill:rgb(0,57,212);fill-rule:nonzero;stroke:rgb(0,57,212);stroke-width:2.8px;stroke-linejoin:round;stroke-miterlimit:2;"/>
    </g>
    <g transform="matrix(5.83051,-6.57019,-5.83106,-6.56957,2218.15,4545.65)">
        <path d="M193.619,458.41C194.031,458.41 194.366,458.745 194.366,459.157C194.366,459.57 194.031,459.904 193.619,459.904C193.206,459.904 192.872,459.57 192.872,459.157C192.871,458.745 193.206,458.41 193.619,458.41" style="fill:rgb(0,57,212);fill-rule:nonzero;stroke:rgb(0,57,212);stroke-width:2.8px;stroke-linejoin:round;stroke-miterlimit:2;"/>
    </g>
    <g transform="matrix(5.82996,-6.57081,-5.83161,-6.56895,1952.67,4816.65)">
        <path d="M212.722,404.911C213.134,404.911 213.469,405.245 213.469,405.657C213.469,406.07 213.134,406.405 212.722,406.405C212.309,406.405 211.975,406.071 211.975,405.658C211.975,405.245 212.309,404.911 212.722,404.911" style="fill:rgb(0,57,212);fill-rule:nonzero;stroke:rgb(0,57,212);stroke-width:2.8px;stroke-linejoin:round;stroke-miterlimit:2;"/>
    </g>
    <g transform="matrix(-0.00213729,4.62159,4.10684,0.00240518,899.256,-266.079)">
        <path d="M272.543,20.952L284.073,20.952" style="fill:none;fill-rule:nonzero;stroke:rgb(0,57,212);stroke-width:5.96px;stroke-miterlimit:10;stroke-dasharray:9.93,3.97,9.93,3.97;"/>
    </g>
    <g transform="matrix(5.83133,-6.56926,-5.83023,-6.5705,1833.9,5019)">
        <path d="M231.825,376.773C232.238,376.773 232.572,377.107 232.572,377.52C232.572,377.932 232.238,378.267 231.825,378.267C231.412,378.267 231.078,377.933 231.078,377.52C231.078,377.107 231.413,376.773 231.825,376.773" style="fill:rgb(0,57,212);fill-rule:nonzero;stroke:rgb(0,57,212);stroke-width:2.8px;stroke-linejoin:round;stroke-miterlimit:2;"/>
    </g>
    <g transform="matrix(2.90398,-3.27208,-2.90398,-3.27208,-63.4433,1258.51)">
        <path d="M48.13,6.715C51.444,6.715 54.13,9.401 54.13,12.715C54.13,16.029 51.444,18.715 48.13,18.715C44.816,18.715 42.13,16.029 42.13,12.715C42.13,9.401 44.816,6.715 48.13,6.715" style="fill:rgb(0,57,212);fill-rule:nonzero;stroke:rgb(0,57,212);stroke-width:5.63px;stroke-linejoin:round;stroke-miterlimit:10;"/>
    </g>
    <g transform="matrix(2.90398,-3.27208,-2.90398,-3.27208,43.3226,1355.76)">
        <path d="M86.497,27.588C89.811,27.588 92.497,30.274 92.497,33.588C92.497,36.902 89.811,39.588 86.497,39.588C83.184,39.588 80.497,36.902 80.497,33.588C80.497,30.274 83.184,27.588 86.497,27.588" style="fill:rgb(0,57,212);fill-rule:nonzero;stroke:rgb(0,57,212);stroke-width:5.63px;stroke-linejoin:round;stroke-miterlimit:10;"/>
    </g>
    <g transform="matrix(2.90398,-3.27208,-2.90398,-3.27208,319.601,1373.9)">
        <path d="M124.864,106.833C128.178,106.833 130.864,109.52 130.864,112.833C130.865,116.148 128.178,118.834 124.864,118.833C121.55,118.834 118.863,116.148 118.864,112.833C118.864,109.52 121.55,106.833 124.864,106.833" style="fill:rgb(0,57,212);fill-rule:nonzero;stroke:rgb(0,57,212);stroke-width:5.63px;stroke-linejoin:round;stroke-miterlimit:10;"/>
    </g>
    <g transform="matrix(2.90398,-3.27208,-2.90398,-3.27208,652.428,1365.6)">
        <path d="M163.221,205.558C166.534,205.558 169.221,208.244 169.221,211.557C169.221,214.871 166.534,217.557 163.221,217.557C159.907,217.557 157.221,214.871 157.221,211.557C157.22,208.243 159.907,205.557 163.221,205.558" style="fill:rgb(0,57,212);fill-rule:nonzero;stroke:rgb(0,57,212);stroke-width:5.63px;stroke-linejoin:round;stroke-miterlimit:10;"/>
    </g>
    <g transform="matrix(2.90398,-3.27208,-2.90398,-3.27208,624.676,1525.67)">
        <path d="M201.597,180.104C204.911,180.104 207.597,182.791 207.597,186.104C207.597,189.418 204.911,192.104 201.597,192.104C198.283,192.105 195.597,189.418 195.598,186.104C195.598,182.791 198.284,180.104 201.597,180.104" style="fill:rgb(0,57,212);fill-rule:nonzero;stroke:rgb(0,57,212);stroke-width:5.63px;stroke-linejoin:round;stroke-miterlimit:10;"/>
    </g>
    <g transform="matrix(2.90386,-3.27222,-2.9041,-3.27195,358.91,1796.79)">
        <path d="M239.954,72.685C243.268,72.685 245.954,75.371 245.954,78.685C245.954,81.999 243.268,84.686 239.954,84.686C236.64,84.686 233.954,82 233.954,78.686C233.953,75.372 236.64,72.686 239.954,72.685" style="fill:rgb(0,57,212);fill-rule:nonzero;stroke:rgb(0,57,212);stroke-width:5.63px;stroke-linejoin:round;stroke-miterlimit:10;"/>
    </g>
    <g transform="matrix(2.90403,-3.27202,-2.90393,-3.27214,240.93,1998.83)">
        <path d="M278.311,16.189C281.625,16.189 284.311,18.875 284.311,22.189C284.311,25.503 281.624,28.189 278.311,28.189C274.997,28.189 272.311,25.502 272.311,22.189C272.311,18.875 274.997,16.189 278.311,16.189" style="fill:rgb(0,57,212);fill-rule:nonzero;stroke:rgb(0,57,212);stroke-width:5.63px;stroke-linejoin:round;stroke-miterlimit:10;"/>
    </g>
    <g transform="matrix(2.90403,-3.27202,-2.90393,-3.27214,255.404,2139.11)">
        <path d="M316.667,5.286C319.981,5.286 322.667,7.972 322.667,11.286C322.667,14.6 319.981,17.286 316.667,17.286C313.354,17.286 310.668,14.599 310.668,11.286C310.668,7.972 313.354,5.286 316.667,5.286" style="fill:rgb(0,57,212);fill-rule:nonzero;stroke:rgb(0,57,212);stroke-width:5.63px;stroke-linejoin:round;stroke-miterlimit:10;"/>
    </g>
    <g transform="matrix(4.10685,0,0,4.62742,-158.261,87.073)">
        <path d="M48.13,210.128L86.497,189.255L124.864,110.009L163.221,11.286L201.597,36.738L239.954,144.157L278.311,200.654L316.668,211.557" style="fill:rgb(0,57,212);fill-opacity:0;fill-rule:nonzero;stroke:rgb(0,57,212);stroke-width:5.95px;stroke-linejoin:round;stroke-miterlimit:10;stroke-dasharray:9.92,3.97,9.92,3.97;"/>
    </g>
    <g transform="matrix(-0.00156693,8.5,4.10685,0.00112679,90.117,311.393)">
        <path d="M75.167,26.515L97.823,26.515" style="fill:none;fill-rule:nonzero;stroke:rgb(0,57,212);stroke-width:3.9px;stroke-miterlimit:10;stroke-dasharray:6.5,2.6,6.5,2.6;"/>
    </g>
    <g transform="matrix(-0.000446106,5.57838,4.10685,0.000433899,86.8415,167.044)">
        <path d="M74.856,65.191L174.863,65.191" style="fill:none;fill-rule:nonzero;stroke:rgb(0,57,212);stroke-width:5.32px;stroke-miterlimit:10;stroke-dasharray:8.86,3.54,8.86,3.54;"/>
    </g>
    <g transform="matrix(-6.93494e-05,5.10833,4.10685,7.21585e-05,46.4649,-192.929)">
        <path d="M65.035,113.372L261.404,113.372" style="fill:none;fill-rule:nonzero;stroke:rgb(0,57,212);stroke-width:5.62px;stroke-miterlimit:10;stroke-dasharray:9.36,3.75,9.36,3.75;"/>
    </g>
    <g transform="matrix(-9.47934e-06,0.698256,4.10685,5.80867e-05,516.733,960.138)">
        <path d="M65.035,113.372L261.404,113.372" style="fill:none;fill-rule:nonzero;stroke:rgb(0,57,212);stroke-width:8.84px;stroke-miterlimit:10;stroke-dasharray:14.73,5.89,14.73,5.89;"/>
    </g>
    <g transform="matrix(-0.000456108,5.17883,4.10685,0.000469583,255.133,-345.773)">
        <path d="M115.826,100.95L287.351,100.95" style="fill:none;fill-rule:nonzero;stroke:rgb(0,57,212);stroke-width:5.57px;stroke-miterlimit:10;stroke-dasharray:9.29,3.71,9.29,3.71;"/>
    </g>
    <g transform="matrix(-0.000887488,6.05364,4.10685,0.000811811,628.092,-512.095)">
        <path d="M206.611,48.525L273.286,48.525" style="fill:none;fill-rule:nonzero;stroke:rgb(0,57,212);stroke-width:5.03px;stroke-miterlimit:10;stroke-dasharray:8.39,3.36,8.39,3.36;"/>
    </g>
</svg>
