<?xml version="1.0" encoding="UTF-8" standalone="no"?>
<!DOCTYPE svg PUBLIC "-//W3C//DTD SVG 1.1//EN" "http://www.w3.org/Graphics/SVG/1.1/DTD/svg11.dtd">
<svg width="100%" height="100%" viewBox="0 0 256 256" version="1.1" xmlns="http://www.w3.org/2000/svg" xmlns:xlink="http://www.w3.org/1999/xlink" xml:space="preserve" xmlns:serif="http://www.serif.com/" style="fill-rule:evenodd;clip-rule:evenodd;stroke-linejoin:round;stroke-miterlimit:2;">
    <g transform="matrix(2.81,0,0,2.81,1.40659,1.40659)">
        <path d="M77.474,17.28L61.526,1.332C60.668,0.473 59.525,0 58.311,0L15.742,0C13.234,0 11.194,2.04 11.194,4.548L11.194,85.452C11.194,87.96 13.234,90 15.742,90L74.258,90C76.766,90 78.807,87.96 78.807,85.452L78.807,20.496C78.807,19.281 78.333,18.138 77.474,17.28ZM61.073,5.121L73.684,17.733L62.35,17.733C61.646,17.733 61.074,17.16 61.074,16.456L61.074,5.121L61.073,5.121ZM74.258,87L15.742,87C14.888,87 14.194,86.306 14.194,85.452L14.194,4.548C14.194,3.694 14.888,3 15.742,3L58.074,3L58.074,16.456C58.074,18.814 59.992,20.733 62.35,20.733L75.807,20.733L75.807,85.452C75.807,86.306 75.112,87 74.258,87Z" style="fill-rule:nonzero;"/>
        <g transform="matrix(6.12323e-17,-1,1,6.12323e-17,27.2771,112.496)">
            <path d="M68.193,33.319L41.808,33.319C40.979,33.319 40.308,32.648 40.308,31.819C40.308,30.99 40.979,30.319 41.808,30.319L68.193,30.319C69.021,30.319 69.693,30.99 69.693,31.819C69.693,32.648 69.021,33.319 68.193,33.319Z" style="fill-rule:nonzero;"/>
        </g>
        <g transform="matrix(6.12323e-17,-1,1,6.12323e-17,8.54204,93.7612)">
            <path d="M34.456,33.319L21.807,33.319C20.978,33.319 20.307,32.648 20.307,31.819C20.307,30.99 20.978,30.319 21.807,30.319L34.456,30.319C35.285,30.319 35.956,30.99 35.956,31.819C35.956,32.648 35.285,33.319 34.456,33.319Z" style="fill-rule:nonzero;"/>
        </g>
        <path d="M-10.246,0L10.246,0" style="fill:none;fill-rule:nonzero;"/>
        <g transform="matrix(6.12323e-17,-1,1,6.12323e-17,33.3624,92.9391)">
            <path d="M42.298,20.733L21.807,20.733C20.978,20.733 20.307,20.062 20.307,19.233C20.307,18.404 20.978,17.733 21.807,17.733L42.299,17.733C43.128,17.733 43.799,18.404 43.799,19.233C43.799,20.062 43.127,20.733 42.298,20.733Z" style="fill-rule:nonzero;"/>
        </g>
        <g transform="matrix(6.12323e-17,-1,1,6.12323e-17,3.02438,92.5963)">
            <path d="M68.193,44.319L21.807,44.319C20.978,44.319 20.307,43.648 20.307,42.819C20.307,41.99 20.978,41.319 21.807,41.319L68.194,41.319C69.022,41.319 69.694,41.99 69.694,42.819C69.694,43.648 69.021,44.319 68.193,44.319Z" style="fill-rule:nonzero;"/>
        </g>
        <g transform="matrix(6.12323e-17,-1,1,6.12323e-17,-20.1712,93.1871)">
            <path d="M48.191,55.319L21.807,55.319C20.978,55.319 20.307,54.647 20.307,53.819C20.307,52.991 20.978,52.319 21.807,52.319L48.192,52.319C49.02,52.319 49.692,52.991 49.692,53.819C49.692,54.647 49.02,55.319 48.191,55.319Z" style="fill-rule:nonzero;"/>
        </g>
        <g transform="matrix(6.12323e-17,-1,1,6.12323e-17,11.1765,126.761)">
            <path d="M68.193,55.319L55.544,55.319C54.716,55.319 54.044,54.647 54.044,53.819C54.044,52.991 54.716,52.319 55.544,52.319L68.193,52.319C69.021,52.319 69.693,52.991 69.693,53.819C69.693,54.647 69.021,55.319 68.193,55.319Z" style="fill-rule:nonzero;"/>
        </g>
        <g transform="matrix(1,0,0,1,0,7.47331)">
            <path d="M68.193,66.319L21.807,66.319C20.978,66.319 20.307,65.647 20.307,64.819C20.307,63.991 20.978,63.319 21.807,63.319L68.194,63.319C69.022,63.319 69.694,63.991 69.694,64.819C69.694,65.647 69.021,66.319 68.193,66.319Z" style="fill-rule:nonzero;"/>
        </g>
        <g transform="matrix(6.12323e-17,-1,1,6.12323e-17,-49.3913,126.759)">
            <path d="M68.193,77.319L55.544,77.319C54.716,77.319 54.044,76.647 54.044,75.819C54.044,74.991 54.716,74.319 55.544,74.319L68.193,74.319C69.021,74.319 69.693,74.991 69.693,75.819C69.693,76.647 69.021,77.319 68.193,77.319Z" style="fill-rule:nonzero;"/>
        </g>
    </g>
</svg>
